<svg width="24" height="24" fill="none" xmlns="http://www.w3.org/2000/svg"><path d="M6.38 1.043a5.898 5.898 0 0 0-3.649 1.762 5.836 5.836 0 0 0-1.692 3.631c-.049.504-.049 10.624 0 11.128a5.862 5.862 0 0 0 1.766 3.705 5.836 5.836 0 0 0 3.631 1.692c.504.049 10.624.049 11.128 0a5.836 5.836 0 0 0 3.631-1.692 5.862 5.862 0 0 0 1.766-3.705c.049-.504.049-10.624 0-11.128a5.862 5.862 0 0 0-1.766-3.705 5.836 5.836 0 0 0-3.631-1.692C17.1.994 6.84.997 6.38 1.043m11.393 2.04a3.985 3.985 0 0 1 3.145 3.145c.08.397.082.51.082 5.772 0 5.266-.002 5.375-.083 5.773a3.985 3.985 0 0 1-3.145 3.145c-.397.08-.51.082-5.772.082-5.262 0-5.375-.002-5.772-.082a3.985 3.985 0 0 1-3.145-3.145C3.002 17.375 3 17.266 3 12s.002-5.375.083-5.773a3.994 3.994 0 0 1 3.12-3.142c.364-.077.557-.079 5.771-.082 5.298-.003 5.401-.002 5.799.08m-.515 2.436c-.516.077-.745.377-.748.981-.003.684.3.987.989.99.359.001.571-.067.754-.242.185-.176.241-.348.243-.748.002-.405-.073-.606-.293-.792-.203-.17-.572-.244-.945-.189M11.12 7.041c-1.877.36-3.36 1.718-3.896 3.569a4.562 4.562 0 0 0-.172 1.55c.059 1.28.508 2.335 1.387 3.255.904.946 2.058 1.469 3.381 1.533 2.527.121 4.728-1.664 5.163-4.188.08-.46.058-1.376-.044-1.84-.148-.68-.481-1.424-.862-1.93a6.461 6.461 0 0 0-1.067-1.069c-.337-.256-1.133-.651-1.53-.76-.768-.211-1.654-.256-2.36-.12m1.472 1.98c.789.15 1.508.629 1.965 1.31.323.482.509 1.197.47 1.809-.048.748-.335 1.37-.887 1.925-.31.312-.417.391-.741.547-.534.258-.806.322-1.359.32-.866-.002-1.491-.262-2.101-.871-.608-.608-.867-1.231-.873-2.101-.003-.558.061-.831.32-1.358A3.074 3.074 0 0 1 11.1 9.118a2.893 2.893 0 0 1 1.492-.097" fill-rule="evenodd" fill="#000"/></svg>