<svg width="32" height="32" fill="none" xmlns="http://www.w3.org/2000/svg"><path d="M3.32 6.91c-.382.191-.547.518-.547 1.09 0 .572.165.899.547 1.09l.274.137h24.812l.274-.137c.382-.191.547-.518.547-1.09 0-.572-.165-.899-.547-1.09l-.274-.137H3.594l-.274.137m0 8c-.382.191-.547.518-.547 1.09 0 .572.165.899.547 1.09l.274.137h24.812l.274-.137c.382-.191.547-.518.547-1.09 0-.572-.165-.899-.547-1.09l-.274-.137H3.594l-.274.137m0 8c-.382.191-.547.518-.547 1.09 0 .572.165.899.547 1.09l.274.137h24.812l.274-.137c.382-.191.547-.518.547-1.09 0-.572-.165-.899-.547-1.09l-.274-.137H3.594l-.274.137" fill-rule="evenodd" fill="#000"/></svg>