<svg width="32" height="32" fill="none" xmlns="http://www.w3.org/2000/svg"><path d="M15.067 2.699c-1.452.148-2.742.436-3.785.844C4.92 6.03 1.434 12.69 3.071 19.227c1.188 4.744 4.958 8.514 9.702 9.702 1.964.492 4.102.529 6.023.105a13.434 13.434 0 0 0 10.262-10.367c.204-.98.247-1.449.247-2.667 0-1.218-.043-1.687-.247-2.667a13.282 13.282 0 0 0-3.621-6.71 13.36 13.36 0 0 0-7.474-3.8c-.679-.102-2.393-.176-2.896-.124m2.571 2.768c2.197.337 4.272 1.4 5.884 3.011a10.673 10.673 0 0 1 3.021 5.94c.126.809.126 2.355 0 3.164-.649 4.182-3.733 7.634-7.781 8.709-1.1.292-1.517.344-2.735.346-1.201.001-1.543-.038-2.6-.296-4.124-1.007-7.311-4.509-7.97-8.759-.126-.809-.126-2.355 0-3.164a10.641 10.641 0 0 1 3.021-5.94c1.821-1.821 3.985-2.826 6.695-3.112.414-.044 1.927.018 2.465.101" fill="#FD9222" fill-rule="evenodd"/></svg>