<svg width="28" height="28" fill="none" xmlns="http://www.w3.org/2000/svg"><path d="M21.5.258c-2.063.249-4.097 1.121-5.814 2.492-2.427 1.938-3.724 4.598-3.345 6.863.137.817.478 1.644.922 2.234l.188.251-6.508 6.516C-.407 25.972.211 25.286.211 26.088c-.001.407.012.469.151.752.179.365.472.652.843.826.229.107.325.124.708.123.801 0 .117.616 7.467-6.725l6.51-6.502.303.215c.445.315 1.169.647 1.727.793.434.114.575.129 1.237.13.556.001.847-.02 1.142-.084 2.534-.552 4.919-2.616 6.343-5.489a13.19 13.19 0 0 0 .888-2.404c.197-.794.254-1.278.256-2.216.004-1.007-.051-1.334-.346-2.077-.656-1.652-2.199-2.884-3.971-3.172-.521-.084-1.273-.084-1.969 0" fill="#FD9222" fill-rule="evenodd"/></svg>