<svg aria-hidden="true" style="position: absolute; width: 0; height: 0; overflow: hidden;" version="1.1" xmlns="http://www.w3.org/2000/svg" xmlns:xlink="http://www.w3.org/1999/xlink">
<defs>
<symbol id="icon-chevron" viewBox="0 0 32 32">
<path d="M16.947 17.867c-0.124 0.125-0.271 0.224-0.434 0.292s-0.337 0.103-0.513 0.103-0.35-0.035-0.513-0.103c-0.162-0.068-0.31-0.167-0.434-0.292l-6.107-6.12c-0.124-0.125-0.271-0.224-0.434-0.292s-0.337-0.103-0.513-0.103c-0.176 0-0.35 0.035-0.513 0.103s-0.31 0.167-0.434 0.292c-0.248 0.25-0.388 0.588-0.388 0.94s0.139 0.69 0.388 0.94l6.12 6.12c0.75 0.749 1.767 1.17 2.827 1.17s2.077-0.421 2.827-1.17l6.12-6.12c0.246-0.248 0.385-0.584 0.387-0.933 0.001-0.175-0.033-0.349-0.099-0.512s-0.164-0.31-0.288-0.435c-0.124-0.125-0.271-0.224-0.434-0.292s-0.337-0.103-0.513-0.103c-0.176 0-0.35 0.035-0.513 0.103s-0.31 0.167-0.434 0.292l-6.107 6.12z"></path>
</symbol>
<symbol id="icon-instagram" viewBox="0 0 32 32">
<path d="M8.507 1.391c-1.921 0.197-3.611 1.058-4.863 2.347l-0.002 0.002c-1.258 1.255-2.088 2.938-2.254 4.812l-0.002 0.030c-0.065 0.672-0.065 14.165 0 14.837 0.175 1.951 1.043 3.671 2.353 4.938l0.002 0.002c1.255 1.258 2.938 2.088 4.812 2.254l0.030 0.002c0.672 0.065 14.165 0.065 14.837 0 1.903-0.168 3.586-0.998 4.841-2.256l0-0c1.312-1.269 2.179-2.989 2.352-4.91l0.002-0.030c0.065-0.672 0.065-14.165 0-14.837-0.175-1.951-1.043-3.671-2.352-4.938l-0.002-0.002c-1.255-1.258-2.938-2.088-4.812-2.254l-0.030-0.002c-0.619-0.060-14.299-0.056-14.912 0.005zM23.697 4.111c2.122 0.426 3.767 2.071 4.188 4.159l0.006 0.034c0.107 0.529 0.109 0.68 0.109 7.696 0 7.021-0.003 7.167-0.111 7.697-0.426 2.122-2.071 3.767-4.159 4.188l-0.034 0.006c-0.529 0.107-0.68 0.109-7.696 0.109s-7.167-0.003-7.696-0.109c-2.122-0.426-3.767-2.071-4.188-4.159l-0.006-0.034c-0.108-0.531-0.111-0.676-0.111-7.697s0.003-7.167 0.111-7.697c0.426-2.11 2.054-3.748 4.125-4.183l0.035-0.006c0.485-0.103 0.743-0.105 7.695-0.109 7.064-0.004 7.201-0.003 7.732 0.107zM23.011 7.359c-0.688 0.103-0.993 0.503-0.997 1.308-0.004 0.912 0.4 1.316 1.319 1.32 0.479 0.001 0.761-0.089 1.005-0.323 0.247-0.235 0.321-0.464 0.324-0.997 0.003-0.54-0.097-0.808-0.391-1.056-0.271-0.227-0.763-0.325-1.26-0.252zM14.827 9.388c-2.503 0.48-4.48 2.291-5.195 4.759-0.153 0.507-0.241 1.091-0.241 1.694 0 0.131 0.004 0.261 0.012 0.39l-0.001-0.018c0.079 1.707 0.677 3.113 1.849 4.34 1.205 1.261 2.744 1.959 4.508 2.044 3.369 0.161 6.304-2.219 6.884-5.584 0.107-0.613 0.077-1.835-0.059-2.453-0.197-0.907-0.641-1.899-1.149-2.573-0.423-0.534-0.89-1.002-1.405-1.412l-0.018-0.013c-0.449-0.341-1.511-0.868-2.040-1.013-1.024-0.281-2.205-0.341-3.147-0.16zM16.789 12.028c1.052 0.2 2.011 0.839 2.62 1.747 0.431 0.643 0.679 1.596 0.627 2.412-0.064 0.997-0.447 1.827-1.183 2.567-0.413 0.416-0.556 0.521-0.988 0.729-0.712 0.344-1.075 0.429-1.812 0.427-1.155-0.003-1.988-0.349-2.801-1.161-0.811-0.811-1.156-1.641-1.164-2.801-0.004-0.744 0.081-1.108 0.427-1.811 0.486-0.922 1.287-1.623 2.257-1.97l0.029-0.009c0.369-0.129 0.794-0.204 1.236-0.204 0.266 0 0.527 0.027 0.778 0.078l-0.025-0.004z"></path>
</symbol>
<symbol id="icon-menu" viewBox="0 0 32 32">
<path d="M3.32 6.91c-0.382 0.191-0.547 0.518-0.547 1.090s0.165 0.899 0.547 1.090l0.274 0.137h24.812l0.274-0.137c0.382-0.191 0.547-0.518 0.547-1.090s-0.165-0.899-0.547-1.090l-0.274-0.137h-24.812l-0.274 0.137zM3.32 14.91c-0.382 0.191-0.547 0.518-0.547 1.090s0.165 0.899 0.547 1.090l0.274 0.137h24.812l0.274-0.137c0.382-0.191 0.547-0.518 0.547-1.090s-0.165-0.899-0.547-1.090l-0.274-0.137h-24.812l-0.274 0.137zM3.32 22.91c-0.382 0.191-0.547 0.518-0.547 1.090s0.165 0.899 0.547 1.090l0.274 0.137h24.812l0.274-0.137c0.382-0.191 0.547-0.518 0.547-1.090s-0.165-0.899-0.547-1.090l-0.274-0.137h-24.812l-0.274 0.137z"></path>
</symbol>
<symbol id="icon-twitter" viewBox="0 0 32 32">
<path d="M21.12 2.699c-1.139 0.208-1.597 0.345-2.32 0.691-0.881 0.423-1.711 1.045-2.281 1.713-1.115 1.305-1.719 2.749-1.829 4.371l-0.037 0.541-0.219-0.024c-2.025-0.22-3.977-0.868-5.373-1.784-1.423-0.935-3.128-2.597-4.477-4.367-0.42-0.552-0.46-0.592-0.753-0.748-0.281-0.149-0.595-0.135-0.979 0.048-0.427 0.201-0.661 0.481-0.839 1.005-0.289 0.845-0.584 2.247-0.768 3.643-0.131 1.001-0.131 3.52 0 4.496 0.248 1.852 0.669 3.263 1.429 4.783 1.073 2.147 2.591 3.856 4.687 5.277l0.533 0.361-0.413 0.175c-1.621 0.708-3.509 1.12-5.494 1.12-0.014 0-0.028-0-0.042-0h0.002c-0.499 0-0.993 0.025-1.1 0.055-0.303 0.080-0.547 0.283-0.681 0.551l-0.003 0.006c-0.112 0.22-0.136 0.339-0.136 0.693 0 0.368 0.020 0.463 0.144 0.673 0.187 0.319 0.353 0.439 1.189 0.864 2.073 1.053 3.952 1.695 6.107 2.085 1.405 0.255 3.689 0.367 5.073 0.249 1.737-0.148 3.2-0.451 4.66-0.963 4.72-1.656 8.313-4.949 10.36-9.495 1.125-2.501 1.687-5.16 1.748-8.287l0.021-1.112 0.327-0.396c0.983-1.197 1.741-2.619 2.188-4.173l0.020-0.083c0.296-1.037 0.107-1.599-0.637-1.884-0.567-0.217-0.884-0.155-1.635 0.327-0.333 0.212-0.833 0.509-1.112 0.659-0.505 0.272-1.491 0.709-1.597 0.709-0.031 0-0.276-0.167-0.544-0.371-0.795-0.603-1.821-1.063-2.927-1.309-0.387-0.085-1.988-0.156-2.292-0.101zM22.863 5.411c1.027 0.219 1.86 0.692 2.631 1.496 0.32 0.333 0.565 0.453 0.928 0.453 0.241 0 0.819-0.143 1.252-0.308 0.119-0.047-0.067 0.2-0.54 0.713-0.545 0.592-0.613 0.777-0.529 1.455 0.155 1.251-0.004 3.307-0.396 5.127-0.557 2.536-1.634 4.76-3.12 6.648l0.027-0.035c-0.465 0.588-1.736 1.851-2.315 2.3-1.041 0.808-2.456 1.639-3.573 2.1-1.347 0.565-2.91 0.97-4.542 1.139l-0.072 0.006c-0.797 0.077-2.567 0.064-3.413-0.025-0.892-0.095-2.080-0.303-2.48-0.435-0.044-0.015 0.196-0.119 0.533-0.229 0.912-0.3 1.688-0.636 2.427-1.033l-0.080 0.039c0.98-0.499 1.844-1.036 2.064-1.283 0.297-0.333 0.461-1.024 0.323-1.355-0.155-0.371-0.339-0.516-1.177-0.925-3.961-1.94-6.103-4.66-6.828-8.673-0.161-0.895-0.211-1.697-0.179-2.959 0.028-1.085 0.061-1.507 0.172-2.144l0.029-0.171 0.464 0.483c0.629 0.634 1.287 1.235 1.975 1.802l0.045 0.036c1.865 1.5 4.248 2.508 6.856 2.904 0.868 0.131 2.787 0.197 3.115 0.108 0.308-0.077 0.561-0.274 0.71-0.537l0.003-0.006c0.128-0.229 0.133-0.281 0.168-1.597 0.029-1.168 0.051-1.416 0.151-1.76 0.483-1.68 1.831-2.957 3.518-3.329l0.031-0.006c0.432-0.095 1.379-0.096 1.823-0.001z"></path>
</symbol>
<symbol id="icon-ukraine" viewBox="0 0 32 32">
<path fill="#ffd700" style="fill: var(--color1, #ffd700)" d="M31.832 4.058h-31.589v23.508h31.589v-23.508z"></path>
<path fill="#0057b7" style="fill: var(--color2, #0057b7)" d="M0.243 4.058h31.589v11.754h-31.589v-11.754z"></path>
</symbol>
<symbol id="icon-x-close" viewBox="0 0 32 32">
<path d="M7.799 6.827c-0.326 0.073-0.712 0.408-0.917 0.794-0.096 0.182-0.085 0.594 0.024 0.809 0.050 0.101 1.751 1.845 3.778 3.875l3.687 3.694-3.687 3.694c-2.027 2.031-3.728 3.775-3.778 3.875-0.117 0.232-0.118 0.629-0.003 0.851 0.114 0.221 0.456 0.562 0.677 0.677 0.223 0.114 0.619 0.113 0.851-0.003 0.101-0.050 1.845-1.751 3.875-3.778l3.694-3.687 3.694 3.687c2.031 2.027 3.775 3.728 3.875 3.778 0.232 0.117 0.629 0.118 0.851 0.003 0.221-0.114 0.562-0.456 0.677-0.677 0.114-0.223 0.113-0.619-0.003-0.851-0.050-0.101-1.751-1.845-3.778-3.875l-3.687-3.694 3.687-3.694c2.027-2.031 3.728-3.775 3.778-3.875 0.117-0.232 0.118-0.629 0.003-0.851-0.172-0.277-0.399-0.504-0.668-0.671l-0.009-0.005c-0.223-0.114-0.619-0.113-0.851 0.003-0.101 0.050-1.845 1.751-3.875 3.778l-3.694 3.687-3.694-3.687c-2.031-2.027-3.765-3.721-3.853-3.765-0.133-0.071-0.291-0.112-0.458-0.112-0.070 0-0.137 0.007-0.203 0.021l0.006-0.001z"></path>
</symbol>
<symbol id="icon-Mastercard" viewBox="0 0 50 32">
<path fill="#ed0006" style="fill: var(--color1, #ed0006)" d="M25.143 28.078c-2.656 2.194-6.102 3.518-9.867 3.518-8.401 0-15.211-6.593-15.211-14.726s6.81-14.726 15.211-14.726c3.765 0 7.21 1.324 9.867 3.518 2.656-2.194 6.102-3.518 9.866-3.518 8.401 0 15.211 6.593 15.211 14.726s-6.81 14.726-15.211 14.726c-3.765 0-7.21-1.324-9.867-3.518z"></path>
<path fill="#f9a000" style="fill: var(--color2, #f9a000)" d="M25.143 28.078c3.271-2.701 5.344-6.72 5.344-11.208s-2.074-8.507-5.344-11.208c2.656-2.194 6.102-3.518 9.866-3.518 8.401 0 15.211 6.593 15.211 14.726s-6.81 14.726-15.211 14.726c-3.765 0-7.21-1.324-9.867-3.518z"></path>
<path fill="#ff5e00" style="fill: var(--color3, #ff5e00)" d="M25.143 28.078c3.271-2.701 5.344-6.72 5.344-11.208s-2.074-8.507-5.344-11.208c-3.271 2.701-5.344 6.72-5.344 11.208s2.074 8.507 5.344 11.208z"></path>
</symbol>
</defs>
</svg>
