<svg width="22" height="22" fill="none" xmlns="http://www.w3.org/2000/svg"><path d="M5.197 7.86a.922.922 0 0 0-.559 1.164c.06.187.185.319 2.232 2.373 1.193 1.196 2.267 2.254 2.388 2.351.289.232.633.416.972.522.398.123 1.142.123 1.54 0 .339-.106.683-.29.972-.522.121-.097 1.195-1.155 2.388-2.351 2.047-2.054 2.172-2.186 2.232-2.373a.91.91 0 0 0-.959-1.203 1.1 1.1 0 0 0-.311.081c-.068.035-1.13 1.066-2.36 2.294-1.547 1.543-2.279 2.248-2.373 2.287-.175.073-.543.073-.718 0-.094-.039-.826-.744-2.373-2.287-1.23-1.228-2.293-2.26-2.363-2.295-.169-.085-.533-.106-.708-.041" fill="#FD9222" fill-rule="evenodd"/></svg>