<svg width="28" height="28" fill="none" xmlns="http://www.w3.org/2000/svg"><path d="M6.824 5.974c-.285.064-.623.357-.802.695-.084.159-.074.52.021.708.044.088 1.532 1.614 3.306 3.391L12.575 14l-3.226 3.232c-1.774 1.777-3.262 3.303-3.306 3.391-.102.203-.103.55-.003.745.1.193.399.492.592.592.195.1.542.099.745-.003.088-.044 1.614-1.532 3.391-3.306L14 15.425l3.232 3.226c1.777 1.774 3.303 3.262 3.391 3.306.203.102.55.103.745.003.193-.1.492-.399.592-.592.1-.195.099-.542-.003-.745-.044-.088-1.532-1.614-3.306-3.391L15.425 14l3.226-3.232c1.774-1.777 3.262-3.303 3.306-3.391.102-.203.103-.55.003-.745a1.801 1.801 0 0 0-.592-.592c-.195-.1-.542-.099-.745.003-.088.044-1.614 1.532-3.391 3.306L14 12.575l-3.232-3.226C8.991 7.575 7.474 6.093 7.397 6.055a.868.868 0 0 0-.573-.081" fill-rule="evenodd" fill="#000"/></svg>